# xmcd CD database file
#
# Track frame offsets:
#	150
#	21749
#	47539
#	70688
#	96158
#	124012
#	142198
#	163442
#	192080
#	220039
#	241651
#
# Disc length: 3697 seconds
#
# Revision: 2
# Processed by: cddbd v1.5.2PL0 Copyright (c) Steve Scherf et al.
# Submitted via: CDex 1.70beta2
#
DISCID=9e0e6f0b
DTITLE=Al Jarreau, 1940--2017 - Metropole Orkest Live
DYEAR=2012
DGENRE=Jazz
TTITLE0=Cold Duck - Eddie Harris, Al Jarreau
TTITLE1=Jacaranda Bougainvillea - Ross Bolton, Al Jarreau, Arno Lucas, Jose Antonio Morelli, Freddie Ravel, Joe Turano, Chris Walker
TTITLE2=Flame - Andrew Ford, Al Jarreau, Larry Williams
TTITLE3=Agua De Beber - Norman Gimbel, Antônio Carlos Jobim, Vinícius de Moraes
TTITLE4=Something That You Said (a Remark You Made) - Al Jarreau, Joe Zawinul
TTITLE5=We're In This Love Together - Roger Murrah, Keith Stegall
TTITLE6=I'm Beginning To See the Light - Duke Ellington, Don George, Johnny Hodges, Harry James
TTITLE7=Midnight Sun - Sonny Burke, Lionel Hampton, Johnny Mercer
TTITLE8=Scootcha-Booty - Russell Ferrante, Al Jarreau
TTITLE9=After All - David Foster, Jay Graydon, Al Jarreau
TTITLE10=Spain (I Can Recall) - Chick Corea, Al Jarreau, Artie Maren, Joaquín Rodrigo
EXTD=YEAR: 2012
EXTT0=
EXTT1=
EXTT2=
EXTT3=
EXTT4=
EXTT5=
EXTT6=
EXTT7=
EXTT8=
EXTT9=
EXTT10=
PLAYORDER=
